<svg width="172" height="37" viewBox="0 0 172 37" fill="none" xmlns="http://www.w3.org/2000/svg">
<path d="M33.0907 36.9927H14.8973C6.67138 36.9927 0 29.3271 0 19.8774V19.4278C0 9.97087 6.67138 2.3125 14.8973 2.3125H22.3027C30.5286 2.3125 37.2 9.97812 37.2 19.4278C37.2 19.8847 36.8761 20.2618 36.4731 20.2618H33.3497C32.9467 20.2618 32.6229 19.8919 32.6229 19.4278C32.6229 12.879 28.0026 7.56313 22.2955 7.56313H14.8901C9.19025 7.56313 4.56274 12.8718 4.56274 19.4278V19.8774C4.56274 26.4262 9.18305 31.7421 14.8901 31.7421H24.8504C24.8504 31.7421 24.8504 31.7421 24.8576 31.7421C25.1814 31.7421 26.2178 31.7421 26.52 32.0902C26.7791 32.3876 27.9306 33.5697 29.262 34.5415C30.2983 35.2957 31.421 35.9629 32.3134 36.2965C33.2346 36.6374 33.4793 36.8912 33.5297 37" fill="#7A36FD"/>
<path d="M28.9091 0.00725103H47.1025C55.3284 0.00725103 61.9998 7.67288 61.9998 17.1226V17.5722C61.9998 27.0291 55.3284 34.6875 47.1025 34.6875H39.6971C31.4712 34.6875 24.7998 27.0219 24.7998 17.5722C24.7998 17.1153 25.1237 16.7382 25.5267 16.7382H28.6501C29.0531 16.7382 29.3769 17.1081 29.3769 17.5722C29.3769 24.121 33.9972 29.4369 39.7043 29.4369H47.1097C52.8096 29.4369 57.4371 24.1282 57.4371 17.5722V17.1226C57.4371 10.5738 52.8168 5.25788 47.1097 5.25788H37.1494C37.1494 5.25788 37.1494 5.25788 37.1422 5.25788C36.8184 5.25788 35.782 5.25788 35.4798 4.90977C35.2207 4.61243 34.0692 3.43031 32.7378 2.45851C31.7015 1.70428 30.5788 1.03707 29.6864 0.703466C28.7652 0.362611 28.5205 0.108784 28.4702 0" fill="#7A36FD"/>
<path d="M72.744 27.5C71.496 27.5 70.872 26.824 70.872 25.472V11.042C70.872 9.69 71.496 9.014 72.744 9.014C73.992 9.014 74.616 9.69 74.616 11.042V22.586C74.616 22.8633 74.59 23.2187 74.538 23.652C74.5033 24.068 74.46 24.4147 74.408 24.692C74.8587 24.1547 75.4133 23.886 76.072 23.886H79.894C80.5353 23.886 81.0293 24.042 81.376 24.354C81.7227 24.666 81.896 25.1167 81.896 25.706C81.896 26.902 81.2287 27.5 79.894 27.5H72.744ZM84.8752 12.056C84.2339 12.056 83.6966 11.848 83.2632 11.432C82.8299 11.016 82.6132 10.5047 82.6132 9.898C82.6132 9.25667 82.8299 8.728 83.2632 8.312C83.6966 7.896 84.2339 7.688 84.8752 7.688C85.5339 7.688 86.0712 7.896 86.4872 8.312C86.9206 8.728 87.1372 9.25667 87.1372 9.898C87.1372 10.5047 86.9206 11.016 86.4872 11.432C86.0712 11.848 85.5339 12.056 84.8752 12.056ZM86.7472 25.966C86.7472 27.1273 86.1406 27.708 84.9272 27.708C84.3379 27.708 83.8699 27.5693 83.5232 27.292C83.1766 26.9973 83.0032 26.5553 83.0032 25.966V16.06C83.0032 15.5053 83.1419 15.072 83.4192 14.76C83.7139 14.448 84.1992 14.292 84.8752 14.292C85.5512 14.292 86.0279 14.448 86.3052 14.76C86.5999 15.072 86.7472 15.5053 86.7472 16.06V25.966ZM91.3994 27.708C90.1514 27.708 89.5274 27.1187 89.5274 25.94V19.7C89.5274 18.036 90.0561 16.7187 91.1134 15.748C92.1881 14.7773 93.6007 14.292 95.3514 14.292C97.1021 14.292 98.5061 14.7773 99.5634 15.748C100.638 16.7187 101.175 18.036 101.175 19.7V25.94C101.175 27.1187 100.551 27.708 99.3034 27.708C98.0554 27.708 97.4314 27.1187 97.4314 25.94V19.908C97.4314 19.0933 97.2494 18.478 96.8854 18.062C96.5214 17.6287 96.0101 17.412 95.3514 17.412C94.6927 17.412 94.1814 17.6287 93.8174 18.062C93.4534 18.478 93.2714 19.0933 93.2714 19.908V25.94C93.2714 27.1187 92.6474 27.708 91.3994 27.708ZM105.846 27.708C105.17 27.708 104.685 27.526 104.39 27.162C104.113 26.798 103.974 26.304 103.974 25.68V9.716C103.974 9.092 104.113 8.598 104.39 8.234C104.685 7.87 105.17 7.688 105.846 7.688C106.522 7.688 106.999 7.87 107.276 8.234C107.571 8.598 107.718 9.092 107.718 9.716V19.388C108.637 18.8333 109.451 18.2093 110.162 17.516C110.873 16.8053 111.358 16.1293 111.618 15.488C111.861 14.8987 112.207 14.5 112.658 14.292C113.109 14.084 113.603 14.11 114.14 14.37C114.885 14.734 115.232 15.2887 115.18 16.034C115.163 16.658 114.877 17.36 114.322 18.14C113.785 18.9027 113.117 19.5613 112.32 20.116C113.325 20.4627 114.131 21.0953 114.738 22.014C115.362 22.9153 115.674 24.224 115.674 25.94C115.674 27.1187 115.059 27.708 113.828 27.708C112.563 27.708 111.93 27.1187 111.93 25.94C111.93 24.6747 111.731 23.7473 111.332 23.158C110.933 22.5687 110.405 22.274 109.746 22.274C109.139 22.274 108.645 22.4993 108.264 22.95C107.9 23.4007 107.718 24.1807 107.718 25.29C107.718 26.2953 107.571 26.954 107.276 27.266C106.981 27.5607 106.505 27.708 105.846 27.708ZM119.342 27.5C119.012 27.5 118.735 27.37 118.51 27.11C118.284 26.85 118.172 26.5207 118.172 26.122V14.422C118.172 13.85 118.25 13.252 118.406 12.628C118.579 12.004 118.891 11.4233 119.342 10.886C119.81 10.3313 120.468 9.88067 121.318 9.534C122.167 9.18733 123.276 9.014 124.646 9.014C126.466 9.014 127.878 9.46467 128.884 10.366C129.889 11.2673 130.392 12.6193 130.392 14.422C130.392 15.15 130.253 15.8173 129.976 16.424C129.716 17.0307 129.317 17.49 128.78 17.802C129.629 18.1833 130.236 18.712 130.6 19.388C130.981 20.064 131.172 21 131.172 22.196C131.172 23.9293 130.634 25.2467 129.56 26.148C128.502 27.0493 126.864 27.5 124.646 27.5H119.342ZM121.734 17.334C121.959 17.0567 122.323 16.84 122.826 16.684C123.346 16.528 123.952 16.45 124.646 16.45C125.46 16.45 126.015 16.3027 126.31 16.008C126.622 15.696 126.778 15.1673 126.778 14.422C126.778 13.5553 126.596 12.94 126.232 12.576C125.885 12.1947 125.356 12.004 124.646 12.004C123.64 12.004 122.93 12.186 122.514 12.55C122.115 12.914 121.916 13.538 121.916 14.422C121.916 14.9593 121.907 15.3927 121.89 15.722C121.89 16.034 121.872 16.3113 121.838 16.554C121.82 16.7967 121.786 17.0567 121.734 17.334ZM121.916 24.484H124.646C125.686 24.484 126.405 24.302 126.804 23.938C127.22 23.574 127.428 22.9933 127.428 22.196C127.428 21.0693 127.211 20.2633 126.778 19.778C126.362 19.2927 125.651 19.05 124.646 19.05C123.935 19.05 123.38 19.1453 122.982 19.336C122.583 19.5093 122.306 19.8213 122.15 20.272C121.994 20.7227 121.916 21.364 121.916 22.196V24.484ZM138.463 27.708C136.729 27.708 135.377 27.3093 134.407 26.512C133.436 25.6973 132.951 24.6487 132.951 23.366C132.951 21.858 133.583 20.766 134.849 20.09C136.131 19.414 138.003 19.18 140.465 19.388C140.343 18.5907 140.092 18.0533 139.711 17.776C139.329 17.4813 138.87 17.334 138.333 17.334C137.899 17.334 137.535 17.36 137.241 17.412C136.963 17.4467 136.703 17.49 136.461 17.542C136.218 17.594 135.923 17.62 135.577 17.62C135.109 17.62 134.736 17.542 134.459 17.386C134.181 17.2127 134.043 16.8747 134.043 16.372C134.043 15.6613 134.346 15.1413 134.953 14.812C135.577 14.4653 136.556 14.292 137.891 14.292C140.005 14.292 141.574 14.8987 142.597 16.112C143.619 17.308 144.131 18.9113 144.131 20.922C144.131 23.2447 143.706 24.9607 142.857 26.07C142.025 27.162 140.56 27.708 138.463 27.708ZM136.695 23.366C136.695 24.354 137.362 24.848 138.697 24.848C139.13 24.848 139.468 24.77 139.711 24.614C139.953 24.458 140.127 24.146 140.231 23.678C140.352 23.21 140.439 22.508 140.491 21.572C140.404 21.6587 140.291 21.7193 140.153 21.754C140.014 21.7887 139.875 21.806 139.737 21.806C138.593 21.806 137.795 21.9187 137.345 22.144C136.911 22.352 136.695 22.7593 136.695 23.366ZM152.194 27.708C150.079 27.708 148.51 27.1013 147.488 25.888C146.465 24.6573 145.954 23.0367 145.954 21.026C145.954 19.0153 146.465 17.3947 147.488 16.164C148.51 14.916 150.079 14.292 152.194 14.292C153.528 14.292 154.499 14.4307 155.106 14.708C155.73 14.9853 156.042 15.4793 156.042 16.19C156.042 16.6927 155.903 17.0567 155.626 17.282C155.348 17.5073 154.976 17.62 154.508 17.62C154.178 17.62 153.918 17.594 153.728 17.542C153.537 17.49 153.329 17.4467 153.104 17.412C152.896 17.36 152.566 17.334 152.116 17.334C151.509 17.334 151.024 17.516 150.66 17.88C150.313 18.244 150.062 18.712 149.906 19.284C149.767 19.8387 149.698 20.4193 149.698 21.026C149.698 21.6153 149.75 22.196 149.854 22.768C149.975 23.3227 150.209 23.782 150.556 24.146C150.902 24.4927 151.431 24.666 152.142 24.666C152.8 24.666 153.286 24.6227 153.598 24.536C153.91 24.432 154.213 24.38 154.508 24.38C154.976 24.38 155.348 24.4667 155.626 24.64C155.903 24.796 156.042 25.1253 156.042 25.628C156.042 26.3387 155.73 26.8673 155.106 27.214C154.499 27.5433 153.528 27.708 152.194 27.708ZM160.487 27.708C159.811 27.708 159.325 27.526 159.031 27.162C158.753 26.798 158.615 26.304 158.615 25.68V9.716C158.615 9.092 158.753 8.598 159.031 8.234C159.325 7.87 159.811 7.688 160.487 7.688C161.163 7.688 161.639 7.87 161.917 8.234C162.211 8.598 162.359 9.092 162.359 9.716V19.388C163.277 18.8333 164.092 18.2093 164.803 17.516C165.513 16.8053 165.999 16.1293 166.259 15.488C166.501 14.8987 166.848 14.5 167.299 14.292C167.749 14.084 168.243 14.11 168.781 14.37C169.526 14.734 169.873 15.2887 169.821 16.034C169.803 16.658 169.517 17.36 168.963 18.14C168.425 18.9027 167.758 19.5613 166.961 20.116C167.966 20.4627 168.772 21.0953 169.379 22.014C170.003 22.9153 170.315 24.224 170.315 25.94C170.315 27.1187 169.699 27.708 168.469 27.708C167.203 27.708 166.571 27.1187 166.571 25.94C166.571 24.6747 166.371 23.7473 165.973 23.158C165.574 22.5687 165.045 22.274 164.387 22.274C163.78 22.274 163.286 22.4993 162.905 22.95C162.541 23.4007 162.359 24.1807 162.359 25.29C162.359 26.2953 162.211 26.954 161.917 27.266C161.622 27.5607 161.145 27.708 160.487 27.708Z" fill="#7A36FD"/>
</svg>
