<svg width="72" height="73" viewBox="0 0 72 73" fill="none" xmlns="http://www.w3.org/2000/svg">
<path d="M2.43841 63.0591L0.094718 71.6527C0.0470154 71.8276 0.178687 72 0.359985 72H31.7252L40.5 72.0082L70.4037 72.4984C70.4671 72.4995 70.5294 72.5147 70.5861 72.543C70.9233 72.7117 71.2961 72.3884 71.1769 72.0307L67.7252 61.6756C67.2652 60.2958 66.2212 59.1885 64.8708 58.6483L63.3457 58.0383C63.2689 58.0075 63.2304 57.9922 63.1924 57.9765C62.4073 57.6531 61.6786 57.2067 61.0338 56.6541C61.0026 56.6273 60.9715 56.6001 60.9092 56.5456L60.0304 55.7766C58.7215 54.6313 57.0413 54 55.302 54C54.441 54 53.587 53.8451 52.7808 53.5428L51.8707 53.2015C51.1951 52.9482 50.8573 52.8215 50.5338 52.6659C50.2054 52.5078 49.8881 52.3276 49.5843 52.1263C49.285 51.928 49.0033 51.7027 48.4399 51.2519L47.5 50.5L46.8451 50.0634C45.38 49.0867 44.5 47.4423 44.5 45.6815C44.5 44.2847 45.0548 42.9451 46.0425 41.9575L46.6555 41.3445C47.2148 40.7852 47.6803 40.1393 48.0341 39.4318L49.7923 35.9153C49.9289 35.6422 50 35.341 50 35.0357V34.847C50 34.0553 50.5387 33.3653 51.3067 33.1733C51.7506 33.0623 52.1322 32.7796 52.3676 32.3872L52.8989 31.5018C53.2922 30.8463 53.5 30.0962 53.5 29.3317V26.0498C53.5 25.7063 53.3283 25.3856 53.0426 25.195C52.5032 24.8355 52.4276 24.0723 52.886 23.614L53.1197 23.3802C53.3632 23.1368 53.5 22.8066 53.5 22.4623V20.5V16V15.25C53.5 14.4386 53.2368 13.6491 52.75 13C52.2632 12.3509 52 11.5614 52 10.75V10.5814C52 9.26813 51.3937 8.02841 50.357 7.22213L48.0936 5.46173C47.7007 5.15614 47.2587 4.91958 46.7865 4.76217L45.5641 4.35472C44.9014 4.13379 44.3974 3.58955 44.2279 2.91177C44.0833 2.33306 43.6929 1.84647 43.1594 1.57969L41.3567 0.678354C40.4645 0.232249 39.4807 0 38.4831 0H32.8245C32.2997 0 32.0372 0 31.7768 0.017009C31.2673 0.0502837 30.7622 0.132251 30.2684 0.261789C30.016 0.328006 29.767 0.410994 29.2691 0.576969L29.269 0.576981C28.9035 0.69882 28.7208 0.759742 28.5417 0.829156C28.1914 0.96493 27.8511 1.12521 27.5233 1.30881C27.3557 1.40267 27.1923 1.50477 26.8656 1.70897L26.8656 1.709L25.0893 2.81917C24.5449 3.1594 24.2728 3.32952 24.0153 3.52067C23.7579 3.71182 23.5163 3.92318 23.0332 4.34591L21.207 5.9439L21.2069 5.94396C20.8902 6.22105 20.7319 6.35961 20.5817 6.50558C20.2206 6.8565 19.8935 7.24072 19.6047 7.65313C19.4846 7.82469 19.373 8.00313 19.15 8.36001L19.1499 8.36012C18.7196 9.04855 18.5045 9.39279 18.3277 9.75053C17.9022 10.6117 17.6353 11.5425 17.5397 12.4983C17.5 12.8953 17.5 13.3013 17.5 14.1132V16V20.7923C17.5 21.2577 17.6083 21.7167 17.8165 22.133L18.4981 23.4961C18.7848 24.0696 18.5996 24.7669 18.0661 25.1226C17.7124 25.3584 17.5 25.7553 17.5 26.1804V27.802C17.5 28.2643 17.5745 28.7236 17.7207 29.1622L18.6004 31.8013C18.8462 32.5388 19.4796 33.0799 20.2464 33.2077C21.2583 33.3764 22 34.2519 22 35.2778V35.5V36.0669C22 37.0093 22.2194 37.9389 22.6409 38.7818C22.8793 39.2585 23.1793 39.7018 23.5334 40.1001L26.0012 42.8763C26.637 43.5916 26.9397 44.543 26.834 45.4943L26.6529 47.1236C26.5659 47.9072 25.9035 48.5 25.1152 48.5C24.4492 48.5 23.8579 48.9262 23.6473 49.5579L23.3796 50.3611C23.1378 51.0866 22.6018 51.677 21.9029 51.9876L18.5 53.5L13 55.5L9.01795 56.8273L9.01764 56.8274C8.52891 56.9904 8.2845 57.0718 8.04783 57.1679C7.38121 57.4385 6.75413 57.7978 6.18357 58.236C5.981 58.3916 5.78711 58.5613 5.39939 58.9005L5.39917 58.9007L4.60624 59.5945C3.5587 60.5111 2.80465 61.7162 2.43841 63.0591Z" fill="#7A36FD"/>
</svg>
