<svg width="31" height="31" viewBox="0 0 31 31" fill="none" xmlns="http://www.w3.org/2000/svg">
<path d="M15.4824 29.7232L12.6342 21.1784H1.24121L4.08946 29.7232H15.4824ZM15.4824 29.7232H21.1789M15.4824 16.9061V16.194C15.4824 13.5081 15.4824 12.1666 14.6479 11.3321C13.8134 10.4975 12.4718 10.4975 9.78595 10.4975C7.10005 10.4975 5.75853 10.4975 4.92399 11.3321C4.08946 12.1666 4.08946 13.5081 4.08946 16.194V16.9061M18.3307 23.3146H26.8754C27.6308 23.3146 28.3553 23.6147 28.8894 24.1489C29.4236 24.683 29.7237 25.4075 29.7237 26.1629V26.8749C29.7237 27.6303 29.4236 28.3548 28.8894 28.8889C28.3553 29.4231 27.6308 29.7232 26.8754 29.7232H25.4513M25.4513 16.9061C25.4513 17.6615 25.1512 18.3859 24.6171 18.9201C24.0829 19.4542 23.3584 19.7543 22.603 19.7543C21.8476 19.7543 21.1232 19.4542 20.589 18.9201C20.0549 18.3859 19.7548 17.6615 19.7548 16.9061C19.7548 16.1507 20.0549 15.4262 20.589 14.8921C21.1232 14.3579 21.8476 14.0578 22.603 14.0578C23.3584 14.0578 24.0829 14.3579 24.6171 14.8921C25.1512 15.4262 25.4513 16.1507 25.4513 16.9061ZM12.6342 4.08897C12.6342 4.84437 12.3341 5.56883 11.8 6.10298C11.2658 6.63713 10.5413 6.93721 9.78595 6.93721C9.03054 6.93721 8.30608 6.63713 7.77193 6.10298C7.23778 5.56883 6.9377 4.84437 6.9377 4.08897C6.9377 3.33357 7.23778 2.6091 7.77193 2.07495C8.30608 1.5408 9.03054 1.24072 9.78595 1.24072C10.5413 1.24072 11.2658 1.5408 11.8 2.07495C12.3341 2.6091 12.6342 3.33357 12.6342 4.08897Z" stroke="#7A36FD" stroke-width="1.5" stroke-linecap="round" stroke-linejoin="round"/>
</svg>
