<svg width="30" height="30" viewBox="0 0 30 30" fill="none" xmlns="http://www.w3.org/2000/svg">
<path d="M15 0.5C22.7619 0.5 29.5 6.9155 29.5 14.25C29.5 21.4242 22.9535 27.1631 15 27.1631L14.3652 27.1504C12.8856 27.0927 11.42 26.8305 10.0107 26.3691L9.72363 26.2744L9.50684 26.4854C8.81526 27.1561 8.57496 27.385 7.11816 28.79C6.18492 29.4883 5.45349 29.6459 4.84766 29.3701L4.72656 29.3086C4.09215 28.9503 3.81498 28.2338 3.9834 27.0176L4.58301 23.5391L4.62891 23.2744L4.43262 23.0898C1.92059 20.7267 0.5 17.6155 0.5 14.25C0.5 6.91547 7.23668 0.5 15 0.5ZM15 1.59961C7.87271 1.59961 1.59961 7.49681 1.59961 14.25C1.59961 17.3736 2.95182 20.2469 5.31934 22.4141L5.55176 22.6221L5.55664 22.626L5.58203 22.6475V22.6484L5.81445 22.8506L5.7627 23.1582H5.76172L5.55566 24.3633L5.5 24.6846L5.07227 27.1719L5.07031 27.1846C5.04313 27.3706 5.02659 27.5582 5.02051 27.7461L5.01953 27.7539V27.9043C5.01953 27.8908 5.02032 27.8465 5.03418 27.791C5.0414 27.7622 5.05694 27.7131 5.08984 27.6582C5.09506 27.6495 5.10272 27.6414 5.10938 27.6318L5.74023 28.3633C5.76129 28.3528 5.77995 28.3402 5.79785 28.3281C5.79371 28.3309 5.79086 28.3342 5.78809 28.3359C5.77192 28.3461 5.75901 28.3524 5.75684 28.3535C5.75879 28.3526 5.76319 28.3505 5.77148 28.3467C5.79888 28.3339 5.84447 28.3133 5.90234 28.2832C6.01901 28.2226 6.17938 28.1298 6.37598 27.9863L6.4043 27.9648L6.42969 27.9404L9.45703 25.002L9.78027 25.125L9.78223 25.126C11.2427 25.6706 12.7785 25.9814 14.333 26.0498L15 26.0645C22.2844 26.0645 28.4004 20.8621 28.4004 14.25C28.4004 7.49835 22.1273 1.59961 15 1.59961ZM5.83301 28.3037C5.82999 28.3061 5.8261 28.3074 5.82324 28.3096C5.83186 28.3029 5.83982 28.296 5.84766 28.2891C5.84123 28.2947 5.837 28.3005 5.83301 28.3037ZM5.16211 27.5645C5.16688 27.5596 5.17258 27.5556 5.17773 27.5508C5.17286 27.5553 5.16714 27.5594 5.16211 27.5645ZM7.8584 12.2188C8.09339 12.2102 8.32822 12.249 8.54785 12.333C8.76752 12.417 8.96838 12.5448 9.1377 12.708C9.30686 12.8711 9.44125 13.0669 9.5332 13.2832C9.62516 13.4996 9.67282 13.7327 9.67285 13.9678C9.67285 14.2029 9.62517 14.4359 9.5332 14.6523C9.44128 14.8687 9.30684 15.0644 9.1377 15.2275C9.01078 15.3499 8.86588 15.4523 8.70898 15.5312L8.54785 15.6025C8.32818 15.6866 8.09343 15.7254 7.8584 15.7168L7.69043 15.7021C7.30077 15.65 6.93825 15.468 6.66309 15.1826C6.34862 14.8565 6.17285 14.4208 6.17285 13.9678C6.17291 13.5148 6.34867 13.079 6.66309 12.7529C6.93824 12.4677 7.30085 12.2855 7.69043 12.2334L7.8584 12.2188ZM15.3555 12.2188C15.5319 12.2123 15.7082 12.2332 15.8779 12.2793L16.0449 12.333C16.2646 12.417 16.4655 12.5448 16.6348 12.708C16.8039 12.8711 16.9383 13.0669 17.0303 13.2832C17.1222 13.4996 17.1699 13.7327 17.1699 13.9678C17.1699 14.2029 17.1222 14.4359 17.0303 14.6523C16.9384 14.8686 16.8039 15.0644 16.6348 15.2275C16.5079 15.3499 16.3629 15.4523 16.2061 15.5312L16.0449 15.6025C15.8252 15.6866 15.5905 15.7254 15.3555 15.7168L15.1875 15.7021C14.7978 15.65 14.4353 15.468 14.1602 15.1826C13.8457 14.8565 13.6699 14.4208 13.6699 13.9678C13.67 13.5148 13.8457 13.079 14.1602 12.7529C14.4353 12.4677 14.7979 12.2855 15.1875 12.2334L15.3555 12.2188ZM22.8516 12.2188C23.0863 12.2102 23.3206 12.2491 23.54 12.333C23.7597 12.417 23.9606 12.5448 24.1299 12.708C24.2991 12.8711 24.4334 13.0669 24.5254 13.2832C24.6173 13.4996 24.665 13.7327 24.665 13.9678C24.665 14.203 24.6174 14.4359 24.5254 14.6523C24.4334 14.8687 24.2991 15.0644 24.1299 15.2275C24.0029 15.35 23.8582 15.4523 23.7012 15.5312L23.54 15.6025C23.3205 15.6865 23.0864 15.7253 22.8516 15.7168L22.6826 15.7021C22.293 15.6499 21.9304 15.468 21.6553 15.1826C21.3408 14.8565 21.165 14.4208 21.165 13.9678C21.1651 13.5148 21.3409 13.079 21.6553 12.7529C21.9304 12.4677 22.2931 12.2856 22.6826 12.2334L22.8516 12.2188Z" fill="#7A36FD" stroke="#7A36FD"/>
</svg>
