<svg width="32" height="32" viewBox="0 0 32 32" fill="none" xmlns="http://www.w3.org/2000/svg">
<path d="M5.88045 9.77132C6.15655 7.35981 7.34167 5.13159 9.20894 3.51322C11.0762 1.89484 13.4944 1 16.0007 1C18.507 1 20.9252 1.89484 22.7924 3.51322C24.6597 5.13159 25.8448 7.35981 26.1209 9.77132L26.5803 13.77L26.5912 13.8706C26.8265 15.854 27.4938 17.7666 28.5489 19.4821L28.6036 19.5703L29.6553 21.2697C30.6123 22.812 31.0899 23.5831 30.986 24.2166C30.9174 24.6371 30.694 25.0194 30.3571 25.293C29.8486 25.7059 28.9189 25.7059 27.0615 25.7059H4.93988C3.08062 25.7059 2.15099 25.7059 1.64424 25.2948C1.3063 25.021 1.08225 24.638 1.01355 24.2166C0.911475 23.5831 1.38905 22.812 2.3442 21.2697L3.39961 19.5686L3.45429 19.4803C4.50853 17.7653 5.17514 15.8533 5.41017 13.8706L5.4211 13.77L5.88045 9.77132Z" stroke="#7A36FD" stroke-width="2"/>
<path d="M10.7178 26.4224C11.0295 27.7352 11.7167 28.8964 12.6718 29.7222C13.627 30.5516 14.7972 30.9998 16.0003 30.9998C17.2033 30.9998 18.3736 30.5516 19.3287 29.724C20.2839 28.8946 20.9693 27.7352 21.2828 26.4224" stroke="#7A36FD" stroke-width="2" stroke-linecap="round"/>
</svg>
