<svg width="25" height="24" viewBox="0 0 25 24" fill="none" xmlns="http://www.w3.org/2000/svg">
<path d="M11.0879 3.5C12.9528 3.5 14.7462 4.19451 16.1221 5.44043L16.3916 5.69629C17.7981 7.10281 18.5879 9.01088 18.5879 11C18.5879 12.9891 17.7981 14.8972 16.3916 16.3037C14.9851 17.7102 13.077 18.5 11.0879 18.5C9.22295 18.5 7.42955 17.8055 6.05371 16.5596L5.78418 16.3037C4.37766 14.8972 3.58789 12.9891 3.58789 11C3.58789 9.13506 4.2824 7.34166 5.52832 5.96582L5.78418 5.69629C7.1907 4.28977 9.09877 3.5 11.0879 3.5ZM11.0879 4.5C9.36398 4.5 7.7102 5.18433 6.49121 6.40332C5.27222 7.62231 4.58789 9.27609 4.58789 11C4.58789 12.7239 5.27222 14.3777 6.49121 15.5967C7.7102 16.8157 9.36398 17.5 11.0879 17.5C11.9415 17.5 12.7866 17.3315 13.5752 17.0049C14.3638 16.6782 15.081 16.2003 15.6846 15.5967C16.2882 14.9931 16.7661 14.2759 17.0928 13.4873C17.4194 12.6987 17.5879 11.8536 17.5879 11C17.5879 10.1464 17.4194 9.30131 17.0928 8.5127C16.807 7.8227 16.4047 7.18801 15.9043 6.63574L15.6846 6.40332C15.081 5.79974 14.3638 5.32177 13.5752 4.99512C12.7866 4.66846 11.9415 4.5 11.0879 4.5Z" fill="black" stroke="#7A36FD"/>
<path d="M16.1143 15.4995C16.2138 15.4999 16.3102 15.5298 16.3916 15.5845L16.4678 15.647L20.4365 19.6401V19.6411C20.5274 19.7357 20.5777 19.8625 20.5762 19.9937C20.5746 20.1246 20.5216 20.2499 20.4287 20.3423C20.3358 20.4347 20.2101 20.487 20.0791 20.4878C19.9807 20.4884 19.885 20.4596 19.8037 20.4067L19.7275 20.3462L15.7588 16.3521C15.6887 16.2815 15.642 16.1924 15.623 16.0962L15.6133 15.9985C15.6136 15.899 15.6436 15.8026 15.6982 15.7212L15.7607 15.645C15.8314 15.5749 15.9204 15.5281 16.0166 15.5093L16.1143 15.4995Z" fill="black" stroke="#7A36FD"/>
</svg>
