<svg width="72" height="89" viewBox="0 0 72 89" fill="none" xmlns="http://www.w3.org/2000/svg">
<path d="M35.0739 14.6646C22.5303 13.5035 16.1561 24 16.7867 27.7439L16.1561 28.5366C5.43606 23.7805 6.38194 21.4024 7.95843 19.8171L35.7045 0C43.1665 5.28455 58.9104 16.4878 62.1894 19.0244C65.4685 21.561 63.5557 23.7805 62.1894 24.5732V51.5244C65.973 51.771 62.2945 60.6109 59.9824 65L59.3518 63.811C54.307 55.5671 56.409 51.6565 58.0906 50.7317L57.7753 27.7439H54.6223C53.5 25 49.5 16 35.0739 14.6646Z" fill="#7A36FD"/>
<path d="M2.43841 79.0591L0.094718 87.6527C0.0470154 87.8276 0.178687 88 0.359985 88H31.7252L40.5 88.0082L70.4037 88.4984C70.4671 88.4995 70.5294 88.5147 70.5861 88.543C70.9233 88.7117 71.2961 88.3884 71.1769 88.0307L67.7252 77.6756C67.2652 76.2958 66.2212 75.1885 64.8708 74.6483L63.3457 74.0383C63.2689 74.0075 63.2304 73.9922 63.1924 73.9765C62.4073 73.6531 61.6786 73.2067 61.0338 72.6541C61.0026 72.6273 60.9715 72.6001 60.9092 72.5456L60.0304 71.7766C58.7215 70.6313 57.0413 70 55.302 70C54.441 70 53.587 69.8451 52.7808 69.5428L51.8707 69.2015C51.1951 68.9482 50.8573 68.8215 50.5338 68.6659C50.2054 68.5078 49.8881 68.3276 49.5843 68.1263C49.285 67.928 49.0033 67.7027 48.4399 67.2519L47.5 66.5L46.8451 66.0634C45.38 65.0867 44.5 63.4423 44.5 61.6815C44.5 60.2847 45.0548 58.9451 46.0425 57.9575L46.6555 57.3445C47.2148 56.7852 47.6803 56.1393 48.0341 55.4318L49.7923 51.9153C49.9289 51.6422 50 51.341 50 51.0357V50.847C50 50.0553 50.5387 49.3653 51.3067 49.1733C51.7506 49.0623 52.1322 48.7796 52.3676 48.3872L52.8989 47.5018C53.2922 46.8463 53.5 46.0962 53.5 45.3317V42.0498C53.5 41.7063 53.3283 41.3856 53.0426 41.195C52.5032 40.8355 52.4276 40.0723 52.886 39.614L53.1197 39.3802C53.3632 39.1368 53.5 38.8066 53.5 38.4623V36.5V32V31.25C53.5 30.4386 53.2368 29.6491 52.75 29C52.2632 28.3509 52 27.5614 52 26.75V26.5814C52 25.2681 51.3937 24.0284 50.357 23.2221L48.0936 21.4617C47.7007 21.1561 47.2587 20.9196 46.7865 20.7622L45.5641 20.3547C44.9014 20.1338 44.3974 19.5896 44.2279 18.9118C44.0833 18.3331 43.6929 17.8465 43.1594 17.5797L41.3567 16.6784C40.4645 16.2322 39.4807 16 38.4831 16H32.8245C32.2997 16 32.0372 16 31.7768 16.017C31.2673 16.0503 30.7622 16.1323 30.2684 16.2618C30.016 16.328 29.767 16.411 29.2691 16.577L29.269 16.577C28.9035 16.6988 28.7208 16.7597 28.5417 16.8292C28.1914 16.9649 27.8511 17.1252 27.5233 17.3088C27.3557 17.4027 27.1923 17.5048 26.8656 17.709L26.8656 17.709L25.0893 18.8192C24.5449 19.1594 24.2728 19.3295 24.0153 19.5207C23.7579 19.7118 23.5163 19.9232 23.0332 20.3459L21.207 21.9439L21.2069 21.944C20.8902 22.2211 20.7319 22.3596 20.5817 22.5056C20.2206 22.8565 19.8935 23.2407 19.6047 23.6531C19.4846 23.8247 19.373 24.0031 19.15 24.36L19.1499 24.3601C18.7196 25.0486 18.5045 25.3928 18.3277 25.7505C17.9022 26.6117 17.6353 27.5425 17.5397 28.4983C17.5 28.8953 17.5 29.3013 17.5 30.1132V32V36.7923C17.5 37.2577 17.6083 37.7167 17.8165 38.133L18.4981 39.4961C18.7848 40.0696 18.5996 40.7669 18.0661 41.1226C17.7124 41.3584 17.5 41.7553 17.5 42.1804V43.802C17.5 44.2643 17.5745 44.7236 17.7207 45.1622L18.6004 47.8013C18.8462 48.5388 19.4796 49.0799 20.2464 49.2077C21.2583 49.3764 22 50.2519 22 51.2778V51.5V52.0669C22 53.0093 22.2194 53.9389 22.6409 54.7818C22.8793 55.2585 23.1793 55.7018 23.5334 56.1001L26.0012 58.8763C26.637 59.5916 26.9397 60.543 26.834 61.4943L26.6529 63.1236C26.5659 63.9072 25.9035 64.5 25.1152 64.5C24.4492 64.5 23.8579 64.9262 23.6473 65.5579L23.3796 66.3611C23.1378 67.0866 22.6018 67.677 21.9029 67.9876L18.5 69.5L13 71.5L9.01795 72.8273L9.01764 72.8274C8.52891 72.9904 8.2845 73.0718 8.04783 73.1679C7.38121 73.4385 6.75413 73.7978 6.18357 74.236C5.981 74.3916 5.78711 74.5613 5.39939 74.9005L5.39917 74.9007L4.60624 75.5945C3.5587 76.5111 2.80465 77.7162 2.43841 79.0591Z" fill="#7A36FD"/>
</svg>
