<svg width="62" height="37" viewBox="0 0 62 37" fill="none" xmlns="http://www.w3.org/2000/svg">
<path d="M33.0907 36.9927H14.8973C6.67138 36.9927 0 29.3271 0 19.8774V19.4278C0 9.97087 6.67138 2.3125 14.8973 2.3125H22.3027C30.5286 2.3125 37.2 9.97812 37.2 19.4278C37.2 19.8847 36.8761 20.2618 36.4731 20.2618H33.3497C32.9467 20.2618 32.6229 19.8919 32.6229 19.4278C32.6229 12.879 28.0026 7.56313 22.2955 7.56313H14.8901C9.19025 7.56313 4.56274 12.8718 4.56274 19.4278V19.8774C4.56274 26.4262 9.18305 31.7421 14.8901 31.7421H24.8504C24.8504 31.7421 24.8504 31.7421 24.8576 31.7421C25.1814 31.7421 26.2178 31.7421 26.52 32.0902C26.7791 32.3876 27.9306 33.5697 29.262 34.5415C30.2983 35.2957 31.421 35.9629 32.3134 36.2965C33.2346 36.6374 33.4793 36.8912 33.5297 37" fill="#7A36FD"/>
<path d="M28.9091 0.00725103H47.1025C55.3284 0.00725103 61.9998 7.67288 61.9998 17.1226V17.5722C61.9998 27.0291 55.3284 34.6875 47.1025 34.6875H39.6971C31.4712 34.6875 24.7998 27.0219 24.7998 17.5722C24.7998 17.1153 25.1237 16.7382 25.5267 16.7382H28.6501C29.0531 16.7382 29.3769 17.1081 29.3769 17.5722C29.3769 24.121 33.9972 29.4369 39.7043 29.4369H47.1097C52.8096 29.4369 57.4371 24.1282 57.4371 17.5722V17.1226C57.4371 10.5738 52.8168 5.25788 47.1097 5.25788H37.1494C37.1494 5.25788 37.1494 5.25788 37.1422 5.25788C36.8184 5.25788 35.782 5.25788 35.4798 4.90977C35.2207 4.61243 34.0692 3.43031 32.7378 2.45851C31.7015 1.70428 30.5788 1.03707 29.6864 0.703466C28.7652 0.362611 28.5205 0.108784 28.4702 0" fill="#7A36FD"/>
</svg>
